# xmcd
#
# Track frame offsets:
#	150
#	18280
#	27072
#	44595
#	59595
#	76470
#	87367
#	102635
#	119587
#	135337
#	149100
#	163975
#	175557
#	189402
#
# Disc length: 2694
#
# Revision: 2
# Processed by: cddbd v1.5.1PL0 Copyright (c) Steve Scherf et al.
# Submitted via: audiograbber 1.82.02
# Normalized: r1:DSETVAR1
#
DISCID=c50a840e
DTITLE=Various Artist - Australian Country Collection CD 1
DYEAR=1900
DGENRE=Country
TTITLE0=Keith Campbell - True Blue
TTITLE1=Denis Tucker - I Feel Fine
TTITLE2=Jean Stafford - Blue Bayou
TTITLE3=Johnny Chester and Syd Heylen - G'day G'day
TTITLE4=Brian Fitzgerald - I Still Call Australia Home
TTITLE5=Colin James - Jamaica Farewell
TTITLE6=Jane Maddick - The Rose
TTITLE7=Col Millington - Mountain Of Love
TTITLE8=Syd Heylen - Bloody Bonza Mate
TTITLE9=Cameron Daddo and Michael Edward-Stevens - Worlds Apart
TTITLE10=Greg Hind - Downunder
TTITLE11=Wayne Horseburgh - Red River Valley
TTITLE12=Andrew Kennedy - If You Love Me Let Me Know
TTITLE13=Judy Stone - Don't Fence Me In
EXTD=
EXTT0=
EXTT1=
EXTT2=
EXTT3=
EXTT4=
EXTT5=
EXTT6=
EXTT7=
EXTT8=
EXTT9=
EXTT10=
EXTT11=
EXTT12=
EXTT13=
PLAYORDER=
